<?xml version="1.0" encoding="utf-8"?>
<!-- Generator: Adobe Illustrator 23.0.3, SVG Export Plug-In . SVG Version: 6.00 Build 0)  -->
<svg version="1.1" id="Layer_1" xmlns="http://www.w3.org/2000/svg" xmlns:xlink="http://www.w3.org/1999/xlink" x="0px" y="0px"
	 viewBox="0 0 320.9 68.5" style="enable-background:new 0 0 320.9 68.5;" xml:space="preserve">
<style type="text/css">
	.st0{fill:#FFFFFF;}
	.st1{fill:#F25E2A;}
	.st2{fill:#00A4E0;}
	.st3{fill:#6DB83F;}
	.st4{fill:#B51C8D;}
</style>
<path class="st0" d="M36.1,53.4c-1.2,1.4-2.6,2.5-4.3,3.2c-1.7,0.8-3.6,1.2-5.9,1.2c-0.1,0-0.1,0-0.2,0c-1.9,0-3.6-0.3-5.2-0.9
	c-1.6-0.6-3.1-1.5-4.5-2.7s-2.5-2.6-3.3-4.1c-0.5-1-0.9-2.1-1.2-3.2h37.1v-4.7c0-2.8-0.5-5.5-1.6-8s-2.7-4.9-4.8-7.2l0,0l0,0
	c-2.2-2.2-4.6-4-7.2-5.3c-2.6-1.2-5.4-2-8.4-2.1l0,0l0,0c-0.5,0-0.9,0-1.4,0c-3,0-5.9,0.6-8.6,1.7c-2.7,1.1-5.2,2.8-7.4,5.1
	c-2.3,2.3-4.1,4.9-5.3,7.7s-1.8,5.8-1.8,9c0,0.2,0,0.4,0,0.6c0.1,3.2,0.7,6.1,1.9,8.9c1.2,2.8,3,5.3,5.3,7.5c2.3,2.2,4.8,3.9,7.4,5
	c2.7,1.1,5.5,1.7,8.5,1.7c0.1,0,0.3,0,0.4,0c2.4,0,4.8-0.4,7-1.1s4.3-1.8,6.3-3.2c2-1.4,3.7-3.1,5.1-5c0.9-1.3,1.7-2.6,2.4-4.1
	C46.4,53.4,36.1,53.4,36.1,53.4z M13.1,35.6c0.8-1.4,1.9-2.7,3.3-3.8c1.3-1.1,2.7-1.9,4.2-2.4s3.1-0.8,4.9-0.8c0.1,0,0.1,0,0.2,0
	c1.8,0,3.5,0.3,5,0.9c1.5,0.5,2.9,1.3,4.2,2.4c1.3,1.1,2.3,2.3,3.1,3.7c0.5,0.8,0.9,1.7,1.2,2.7H11.9C12.2,37.4,12.6,36.5,13.1,35.6
	z"/>
<path class="st0" d="M120.7,24.5c-1.6-1.7-3.5-3.1-5.7-4.1c-2.1-1-4.5-1.6-7-1.8l0,0l0,0c-0.5,0-1.1-0.1-1.6-0.1
	c-3.1,0-6,0.8-8.6,2.3c-1.9,1.1-3.6,2.7-5.1,4.6c-1.5-1.9-3.2-3.4-5.1-4.6c-2.6-1.5-5.5-2.3-8.6-2.3c-0.5,0-1.1,0-1.6,0.1l0,0l0,0
	c-2.6,0.2-4.9,0.8-7,1.8s-4,2.3-5.6,4.1c-1.7,1.8-3,4-3.9,6.4s-1.3,5.1-1.3,8v27.9h9.7V38.3c0-1.5,0.2-2.9,0.6-4.2
	c0.4-1.2,1-2.4,1.8-3.4s1.7-1.7,2.7-2.2s2.1-0.7,3.5-0.7s2.7,0.2,3.8,0.7c1.2,0.4,2.2,1.1,3.2,2s1.7,1.9,2.2,2.9
	c0.5,1.1,0.7,2.2,0.7,3.5v29.9h9.8V37c0-1.3,0.2-2.5,0.7-3.5c0.5-1.1,1.2-2,2.2-2.9s2.1-1.6,3.2-2c1.2-0.4,2.4-0.7,3.8-0.7
	s2.5,0.3,3.5,0.7c1,0.5,1.9,1.2,2.7,2.2s1.5,2.2,1.9,3.4s0.6,2.6,0.6,4.1v28.6h9.7v-1.8V38.9c0-2.9-0.4-5.6-1.3-8
	C123.7,28.5,122.4,26.4,120.7,24.5z"/>
<path class="st0" d="M171.5,53.2c-1.2,1.5-2.7,2.5-4.3,3.3c-1.7,0.8-3.7,1.2-6,1.2c-0.1,0-0.1,0-0.2,0c-1.9,0-3.7-0.3-5.3-0.9
	s-3.1-1.5-4.6-2.7c-1.4-1.3-2.5-2.7-3.3-4.2c-0.5-1-0.9-2.1-1.2-3.3h37.8v-4.8c0-2.9-0.6-5.6-1.6-8.2c-1.1-2.6-2.7-5-4.9-7.3l0,0
	l0,0c-2.2-2.3-4.7-4.1-7.3-5.4c-2.7-1.3-5.5-2-8.6-2.2l0,0l0,0c-0.5,0-0.9,0-1.4,0c-3.1,0-6.1,0.6-8.8,1.7c-2.7,1.2-5.3,2.9-7.6,5.2
	c-2.4,2.4-4.2,5-5.4,7.9s-1.8,6-1.8,9.2c0,0.2,0,0.4,0,0.6c0.1,3.2,0.7,6.3,1.9,9.1s3.1,5.4,5.5,7.7c2.3,2.3,4.9,4,7.6,5.1
	c2.7,1.2,5.6,1.7,8.7,1.7c0.1,0,0.3,0,0.4,0c2.5,0,4.9-0.4,7.1-1.1c2.3-0.7,4.4-1.8,6.5-3.3c2-1.4,3.8-3.2,5.2-5.1
	c0.9-1.3,1.8-2.7,2.5-4.2H171.5z M148,35c0.9-1.4,2-2.7,3.3-3.8s2.8-1.9,4.3-2.4s3.2-0.8,5-0.8c0.1,0,0.1,0,0.2,0
	c1.9,0,3.6,0.3,5.1,0.9c1.6,0.6,3,1.4,4.3,2.5s2.4,2.4,3.2,3.8c0.5,0.8,0.9,1.8,1.2,2.7h-28C147.1,36.8,147.5,35.8,148,35z"/>
<path class="st0" d="M240.7,2.5h-9.3v21.2c-1.4-1.2-2.9-2.1-4.5-2.9c-2.8-1.4-6-2.1-9.3-2.3l0,0l0,0c-0.3,0-0.5,0-0.8,0
	c-3.1,0-6.1,0.6-8.8,1.7c-2.7,1.2-5.3,2.9-7.5,5.2c-2.4,2.4-4.2,5-5.4,7.9s-1.8,6-1.8,9.4c0,3.2,0.6,6.2,1.7,9
	c1.1,2.8,2.8,5.4,5,7.7c2.2,2.3,4.7,4.1,7.4,5.3c2.7,1.2,5.7,1.9,8.9,2c0.3,0,0.5,0,0.8,0c3.1,0,6.1-0.6,8.9-1.7
	c2.8-1.2,5.3-2.9,7.6-5.2c2.3-2.3,4.1-4.9,5.3-7.6c1.2-2.8,1.8-5.8,1.8-9c0-0.2,0-0.4,0-0.6L240.7,2.5L240.7,2.5z M231.4,42.9
	c0,2-0.4,3.9-1.1,5.6c-0.7,1.7-1.8,3.4-3.2,4.9s-2.9,2.6-4.5,3.3c-1.6,0.7-3.4,1.1-5.3,1.1c-0.3,0-0.6,0-0.8,0l0,0l0,0
	c-2-0.1-3.8-0.5-5.4-1.3c-1.6-0.8-3.1-1.9-4.5-3.5c-1.4-1.5-2.4-3.1-3-4.9c-0.7-1.7-1-3.6-1-5.6c0-0.1,0-0.1,0-0.2l0,0
	c0-2.1,0.4-4,1.1-5.7c0.7-1.7,1.8-3.3,3.3-4.8c1.4-1.4,3-2.5,4.7-3.2s3.5-1.1,5.5-1.1c0.1,0,0.1,0,0.2,0l0,0l0,0
	c2,0,3.8,0.4,5.4,1.1c1.6,0.7,3.1,1.8,4.5,3.2c1.4,1.5,2.4,3,3.1,4.8c0.7,1.7,1.1,3.6,1.1,5.6l0,0l0,0
	C231.4,42.5,231.4,42.7,231.4,42.9z"/>
<polygon class="st0" points="251.4,66.9 260.8,66.9 260.8,65.1 260.8,18.6 251.4,18.6 "/>
<path class="st0" d="M319.1,41.9c0-3-0.5-5.9-1.6-8.5c-1.1-2.7-2.7-5.1-4.9-7.4c-2.2-2.3-4.8-4.1-7.5-5.4c-2.8-1.2-5.8-1.9-9-2
	c-0.3,0-0.7,0-1,0c-3.1,0-6,0.6-8.8,1.7c-2.7,1.2-5.2,2.9-7.5,5.1c-2.4,2.4-4.2,5-5.4,7.9c-1.2,2.9-1.8,6-1.8,9.4
	c0,3.2,0.6,6.2,1.7,9s2.8,5.4,5,7.7c2.2,2.3,4.7,4.1,7.4,5.4c2.7,1.2,5.7,1.9,8.8,2l0,0c0.3,0,0.5,0,0.8,0c3.4,0,6.7-0.7,9.6-2.1
	c1.7-0.8,3.3-1.9,4.9-3.1v4.2h9.2V43v-0.3C319.1,42.4,319.1,42.2,319.1,41.9z M294.8,57.8c-2-0.1-3.7-0.5-5.4-1.3
	c-1.6-0.8-3.1-1.9-4.6-3.5c-1.4-1.5-2.4-3.1-3-4.8c-0.7-1.7-1-3.5-1-5.4c0-0.1,0-0.3,0-0.4l0,0l0,0c0-2.1,0.4-3.9,1.1-5.7
	c0.7-1.7,1.8-3.3,3.2-4.7c1.5-1.5,3-2.5,4.7-3.2s3.6-1.1,5.6-1.1s3.7,0.4,5.4,1.1c1.6,0.7,3.1,1.8,4.5,3.2c1.4,1.5,2.5,3,3.2,4.7
	s1.1,3.6,1.1,5.6c0,0.1,0,0.2,0,0.4c0,2.1-0.4,4-1.1,5.8s-1.8,3.4-3.3,5c-1.4,1.5-3,2.6-4.6,3.3c-1.6,0.7-3.4,1.1-5.4,1.1
	C295.3,57.8,295.1,57.8,294.8,57.8z"/>
<circle class="st1" cx="255.9" cy="7.2" r="5.5"/>
<circle class="st2" cx="274" cy="7.2" r="5.5"/>
<circle class="st3" cx="292.2" cy="7.2" r="5.5"/>
<circle class="st4" cx="310.4" cy="7.2" r="5.5"/>
</svg>
